<svg viewBox="0 0 96 96" xmlns="http://www.w3.org/2000/svg" xmlns:xlink="http://www.w3.org/1999/xlink" id="Icons_TouchScreen_M" overflow="hidden"><g id="Icons"><path d="M47.064 29.318C52.5625 25.1436 53.6358 17.3021 49.4614 11.8036 45.2869 6.30518 37.4455 5.23184 31.947 9.40629 26.4485 13.5807 25.3752 21.4222 29.5496 26.9206 30.2362 27.8249 31.0427 28.6315 31.947 29.318L31.947 26.655C27.9218 22.4806 28.0428 15.8334 32.2172 11.8082 36.3917 7.78301 43.0388 7.90399 47.064 12.0784 50.986 16.1458 50.986 22.5876 47.064 26.655Z"/><path d="M25.542 41.137C22.5556 41.7947 20.6677 44.7488 21.3254 47.7353 21.3269 47.7422 21.3285 47.7491 21.33 47.756L26.794 72.3C27.0756 73.5705 27.798 74.7002 28.833 75.489L38.505 82.915 38.505 89.274 40.505 89.274 40.505 82.421C40.5049 82.1103 40.3605 81.8172 40.114 81.628L30.047 73.9C29.3869 73.397 28.9263 72.6763 28.747 71.866L23.282 47.318C22.8857 45.3967 24.122 43.518 26.0432 43.1217 27.9231 42.734 29.771 43.9098 30.216 45.777L33.96 62.577C34.0849 63.1184 34.6251 63.456 35.1665 63.331 35.6309 63.2238 35.9563 62.8055 35.946 62.329L35.946 19.468C35.9789 17.5027 37.5989 15.9362 39.5642 15.9692 41.483 16.0013 43.0308 17.5491 43.063 19.468L43.063 41.968C43.0569 42.5043 43.4656 42.9545 44 43 44.5511 43.0365 45.0274 42.6193 45.0638 42.0682 45.0653 42.0455 45.0661 42.0227 45.066 42 45.0688 39.5357 47.0688 37.5403 49.533 37.5431 51.6144 37.5454 53.4176 38.9864 53.879 41.016 54.0016 41.5545 54.5375 41.8917 55.076 41.7691 55.2527 41.7289 55.4152 41.6414 55.546 41.516 57.3214 39.8078 60.1454 39.8622 61.8536 41.6376 62.6522 42.4676 63.0988 43.5742 63.1 44.726 63.1001 44.8546 63.0928 44.9832 63.078 45.111 63.0075 45.6588 63.3943 46.16 63.9421 46.2305 64.2322 46.2679 64.5242 46.1763 64.741 45.98 66.5632 44.3242 69.3826 44.4592 71.0384 46.2814 71.7841 47.102 72.1972 48.1711 72.197 49.28L72.197 65.643C72.197 72.335 69.921 75.253 67.913 77.828 66.369 79.806 64.913 81.675 64.913 84.728L64.913 89.269 66.913 89.269 66.913 84.732C66.913 82.363 68.05 80.904 69.49 79.058 71.59 76.369 74.198 73.023 74.198 65.643L74.198 49.277C74.1965 45.7098 71.3034 42.8192 67.7362 42.8208 66.7805 42.8212 65.8367 43.0337 64.973 43.443 64.2595 39.9451 60.8454 37.6878 57.3475 38.4013 56.6393 38.5458 55.9604 38.808 55.339 39.177 53.7732 35.9688 49.903 34.6373 46.6948 36.2031 46.0959 36.4954 45.5458 36.8786 45.064 37.339L45.064 19.468C45.0228 16.3981 42.5008 13.9429 39.4309 13.9841 36.4191 14.0245 33.9874 16.4562 33.947 19.468L33.947 53.226C33.947 53.2315 33.9425 53.236 33.937 53.236 33.9315 53.236 33.927 53.2315 33.927 53.226L32.169 45.341C31.5044 42.3521 28.5426 40.468 25.5538 41.1326 25.5502 41.1334 25.5466 41.1342 25.543 41.135Z"/></g></svg>